<svg version="1.1" id="Layer_1" xmlns="http://www.w3.org/2000/svg" x="0" y="0" viewBox="0 0 500 500" style="enable-background:new 0 0 500 500" xml:space="preserve">
  <style>
    .st1 { fill: #00897B; }
    .st2 { fill: #F7DECE; }
    .st3 { fill: #ecf4f7; }
    .bg-circle { fill: #d0d7e2; } <!-- Background circle color -->
  </style>

  <!-- Background Circle -->
  <circle class="bg-circle" cx="250" cy="250" r="240" />

  <!-- Original SVG Content -->
  <path class="st1" d="M430.349 292.675h-10.522v-50.918h-34.22v50.918h-10.522c-9.929 0-17.979 8.05-17.979 17.979V490a5 5 0 0 0 5 5h86.222V310.655c0-9.93-8.05-17.98-17.979-17.98z"/>
  <path class="st3" d="M357.106 348.955h91.222v72.557h-91.222z"/>
  <ellipse class="st2" cx="241.658" cy="172.03" rx="102.041" ry="102.209"/>
  <path class="st2" d="M412.5 215.478h-19.565a7.328 7.328 0 0 0-7.328 7.328v18.952h34.22v-18.952a7.328 7.328 0 0 0-7.327-7.328z"/>
  <path class="st1" d="M301.376 173.414c-.683 10.712-9.563 19.195-20.447 19.195-10.884 0-19.763-8.483-20.447-19.195h-.066v20.513c0 11.329 9.184 20.513 20.513 20.513 11.329 0 20.513-9.184 20.513-20.513v-20.513h-.066z"/>
  <circle transform="rotate(-10.9 280.943 172.1)" class="st3" cx="280.929" cy="172.095" r="20.513"/>
  <path class="st1" d="M222.833 173.414c-.683 10.712-9.563 19.195-20.447 19.195s-19.763-8.483-20.447-19.195h-.067v20.513c0 11.329 9.184 20.513 20.513 20.513 11.329 0 20.513-9.184 20.513-20.513v-20.513h-.065z"/>
  <circle class="st3" cx="202.386" cy="172.095" r="20.513"/>
  <path class="st2" d="M357.106 490v-45.682H151.3V341.33H94.24v133.561c0 11.106 9.002 20.109 20.106 20.109h247.76a5 5 0 0 1-5-5z"/>
  <path d="M366.355 271.272c-10.372-8.34-23.537-13.332-37.87-13.332h-31.529c-15.934 10.311-34.917 16.3-55.299 16.3s-39.365-5.988-55.299-16.3h-31.529c-33.463 0-60.591 27.185-60.591 60.72v22.67h57.06v102.988h205.806V310.655c0-9.93 8.05-17.979 17.979-17.979h1.503a27.453 27.453 0 0 0-10.231-21.404z" style="fill:#00897B;"/>
  <path d="M241.658 232.164c8.971 0 17.313 4.04 22.885 11.084a5 5 0 1 1-7.842 6.204c-3.665-4.632-9.147-7.288-15.043-7.288-5.896 0-11.379 2.656-15.042 7.288a5 5 0 0 1-7.843-6.203c5.572-7.045 13.913-11.085 22.885-11.085z" style="fill:#C1694F"/>
</svg>
