<svg xmlns="http://www.w3.org/2000/svg" viewBox="0 0 127 126">
  <defs>
    <linearGradient id="paint0_linear" x1="63.5" y1="0" x2="63.5" y2="125.665" gradientUnits="userSpaceOnUse">
      <stop stop-color="#AFC1DC"/>
      <stop offset="1" stop-color="#E2E5ED"/>
    </linearGradient>
  </defs>
  
  <!-- Background circle -->
  <circle cx="63.5" cy="62.8325" r="62.8325" fill="url(#paint0_linear)"/>
  
  <!-- Face shape -->
  <path d="M78.7 46.3C67.4 46.3 42.9 43.4 42.9 43.4C42.9 43.4 38.1 48.8 35.2 51.6C29.9 56.9 30.4 63.5 29.7 71.8C30.6 94.9 45.4 113.4 63.6 113.4C81.7 113.4 96.4 95.2 97.4 72.2C96.4 62 89.5 46.3 78.7 46.3Z" fill="#F7DECE"/>
  
  <!-- Mouth (sad expression) -->
  <path d="M57 92C58 90 69 90 70 92C69 89 58 89 57 92" fill="#C1694F"/>
  <path d="M63.5 86C62.5 86 61.5 85.8 60.7 85.5C59.9 85.2 59.3 84.8 59 84.5" stroke="#C1694F" stroke-width="1.5"/>
  
  <!-- Eyes (tired/sad) -->
  <path d="M46 73C46.5 71.5 52 71.5 52.5 73C52 72 46.5 72 46 73" fill="#662113"/>
  <path d="M47 69C47.5 68 51 68 51.5 69" stroke="#662113" stroke-width="2" stroke-linecap="round"/>
  
  <path d="M74.5 73C75 71.5 80.5 71.5 81 73C80.5 72 75 72 74.5 73" fill="#662113"/>
  <path d="M75.5 69C76 68 79.5 68 80 69" stroke="#662113" stroke-width="2" stroke-linecap="round"/>
  
  <!-- Depression "rain cloud" -->
  <path d="M63.6 23.1C86.8 23.1 101.3 40.2 101.3 54.5C101.3 68.8 98.4 74.5 95.5 68.8C92.6 63.1 89.7 54.5 89.7 54.5C89.7 54.5 79.8 60.9 72.1 51.7C72.1 51.7 75.2 68.8 57.8 51.7C57.8 51.7 60.7 63.1 43.3 48.8C43.3 48.8 34.6 54.5 31.7 68.8C30.9 72.7 25.9 68.8 25.9 54.5C25.9 40.2 37.5 23.1 63.6 23.1Z" fill="#00897B"/>
  
  <!-- Tear drops -->
  <path d="M79.7 87.7C79.7 88.3 79.2 88.8 78.6 88.8C78 88.8 77.5 88.3 77.5 87.7C77.5 87.1 78.6 85.7 78.6 85.7C78.6 85.7 79.7 87.1 79.7 87.7Z" fill="#00897B"/>
  <path d="M84 94.2C84 94.8 83.5 95.3 82.9 95.3C82.3 95.3 81.8 94.8 81.8 94.2C81.8 93.6 82.9 92.2 82.9 92.2C82.9 92.2 84 93.6 84 94.2Z" fill="#00897B"/>
  <path d="M86.7 90.4C86.7 91 86.2 91.5 85.6 91.5C85 91.5 84.5 91 84.5 90.4C84.5 89.8 85.6 88.4 85.6 88.4C85.6 88.4 86.7 89.8 86.7 90.4Z" fill="#00897B"/>
</svg>