<svg xmlns="http://www.w3.org/2000/svg" viewBox="0 0 127 126">
  <defs>
    <linearGradient id="paint0_linear" x1="63.5" y1="0" x2="63.5" y2="125.665" gradientUnits="userSpaceOnUse">
      <stop stop-color="#AFC1DC"/>
      <stop offset="1" stop-color="#E2E5ED"/>
    </linearGradient>
  </defs>
  
  <!-- Background circle -->
  <circle cx="63.5" cy="62.8325" r="62.8325" fill="url(#paint0_linear)"/>
  
  <!-- Face shape -->
  <path d="M78.7 46.3C67.4 46.3 42.9 43.4 42.9 43.4C42.9 43.4 38.1 48.8 35.2 51.6C29.9 56.9 30.4 63.5 29.7 71.8C30.6 94.9 45.4 113.4 63.6 113.4C81.7 113.4 96.4 95.2 97.4 72.2C96.4 62 89.5 46.3 78.7 46.3Z" fill="#F7DECE"/>
  
  <!-- Mouth (worried expression) -->
  <path d="M66.4 87.9H60.7C59.9 87.9 59.3 87.6 58.7 87.1C58.2 86.6 57.9 85.9 57.9 85.1C57.9 84.4 58.2 83.6 58.7 83.1C59.3 82.6 59.9 82.3 60.7 82.3H66.4C67.2 82.3 67.9 82.6 68.4 83.1C68.9 83.6 69.2 84.4 69.2 85.1C69.2 85.9 68.9 86.6 68.4 87.1C67.9 87.6 67.2 87.9 66.4 87.9Z" fill="#C1694F"/>
  
  <!-- Eyes (worried) -->
  <path d="M49.4 76.6C48.7 76.6 47.9 76.3 47.4 75.8C46.9 75.3 46.6 74.5 46.6 73.8V68.1C46.6 67.4 46.9 66.7 47.4 66.1C47.9 65.6 48.7 65.3 49.4 65.3C50.2 65.3 50.9 65.6 51.4 66.1C51.9 66.7 52.3 67.4 52.3 68.1V73.8C52.3 74.5 51.9 75.3 51.4 75.8C50.9 76.3 50.2 76.6 49.4 76.6Z" fill="#662113"/>
  <path d="M77.7 76.6C77 76.6 76.2 76.3 75.7 75.8C75.2 75.3 74.9 74.5 74.9 73.8V68.1C74.9 67.4 75.2 66.7 75.7 66.1C76.2 65.6 77 65.3 77.7 65.3C78.5 65.3 79.2 65.6 79.7 66.1C80.2 66.7 80.5 67.4 80.5 68.1V73.8C80.5 74.5 80.2 75.3 79.7 75.8C79.2 76.3 78.5 76.6 77.7 76.6Z" fill="#662113"/>
  
  <!-- Anxiety "cloud" or "thoughts" -->
  <path d="M63.6 23.1C86.8 23.1 101.3 40.2 101.3 54.5C101.3 68.8 98.4 74.5 95.5 68.8C92.6 63.1 89.7 54.5 89.7 54.5C89.7 54.5 79.8 60.9 72.1 51.7C72.1 51.7 75.2 68.8 57.8 51.7C57.8 51.7 60.7 63.1 43.3 48.8C43.3 48.8 34.6 54.5 31.7 68.8C30.9 72.7 25.9 68.8 25.9 54.5C25.9 40.2 37.5 23.1 63.6 23.1Z" fill="#00897B"/>
  
  <!-- Stress sweat drops -->
  <circle cx="79.7" cy="87.7" r="1.1" fill="#00897B"/>
  <circle cx="81.3" cy="90.4" r="0.5" fill="#00897B"/>
  <circle cx="79.2" cy="93.7" r="1.6" fill="#00897B"/>
  <circle cx="84.0" cy="94.2" r="1.1" fill="#00897B"/>
  <circle cx="86.7" cy="90.4" r="1.6" fill="#00897B"/>
</svg>