<svg version="1.1" id="Layer_1" xmlns="http://www.w3.org/2000/svg" x="0" y="0" viewBox="0 0 500 500" style="enable-background:new 0 0 500 500" xml:space="preserve"><style>.st0{fill:#00897B}</style><path class="st0" d="m351.134 472.293-38.14-116.454c-16.919 14.55-38.929 23.346-62.994 23.346s-46.074-8.796-62.994-23.346l-38.14 116.454A32.966 32.966 0 0 1 117.536 495h264.928a32.968 32.968 0 0 1-31.33-22.707z"/><path d="m380.771 375.292-16.829-38.793a40.49 40.49 0 0 1-3.345-16.113V290.81a61.574 61.574 0 0 0-4.928-24.137l-15.185-35.637a13.888 13.888 0 0 0-12.776-8.443h-1.853c-17.705-22.382-45.102-36.745-75.855-36.745s-58.15 14.363-75.855 36.745h-1.853a13.888 13.888 0 0 0-12.776 8.443l-15.185 35.637a61.567 61.567 0 0 0-4.928 24.137v29.575a40.472 40.472 0 0 1-3.345 16.113l-16.829 38.793H84.533v87.644l.021-.039C85.002 479.931 98.856 495 117.536 495a32.967 32.967 0 0 0 31.33-22.707l38.14-116.454c16.919 14.549 38.929 23.346 62.994 23.346s46.074-8.797 62.994-23.346l38.14 116.454A32.968 32.968 0 0 0 382.464 495c18.68 0 32.534-15.069 32.983-32.103l.021.039v-87.644h-34.697z" style="fill:#F7DECE"/><path d="m151.234 250.475 8.282-19.438a13.888 13.888 0 0 1 12.776-8.443h1.853c17.705-22.382 45.102-36.745 75.855-36.745s58.15 14.363 75.855 36.745h1.853a13.888 13.888 0 0 1 12.776 8.443l8.282 19.438c36.553-9.956 59.991-25.313 59.991-42.547 0-15.42-18.766-29.34-48.902-39.231 10.468-23.972 12.071-43.238 2.403-52.906-11.921-11.921-38.431-6.716-70.367 11.123.071.25.138.51.209.762-9.964-35.632-25.121-58.384-42.1-58.384s-32.136 22.752-42.1 58.384c.07-.252.138-.512.209-.762-31.936-17.839-58.446-23.044-70.367-11.123-9.668 9.668-8.064 28.935 2.403 52.906-30.136 9.892-48.902 23.811-48.902 39.231 0 17.233 23.438 32.591 59.991 42.547z" style="fill:#ecf4f7"/><path class="st0" d="M139.404 299.226h-6.64c-26.637 0-48.231 21.594-48.231 48.231v27.834h34.698l16.829-38.793a40.416 40.416 0 0 0 2.499-7.884c.56-2.7.845-5.457.845-8.229v-21.159zM367.237 299.226h-6.64v21.159a40.519 40.519 0 0 0 3.344 16.113l16.829 38.793h34.698v-27.834c0-26.637-21.594-48.231-48.231-48.231z"/><path d="M233.466 16.535a5 5 0 0 1 5-5H245V5a5 5 0 0 1 10 0v6.535h6.535a5 5 0 1 1 0 10H255v6.534a5 5 0 1 1-10 0v-6.534h-6.535a5 5 0 0 1-4.999-5zM122.009 80.056h6.535v6.535a5 5 0 0 0 10 0v-6.535h6.534a5 5 0 0 0 0-10h-6.534v-6.535a5 5 0 0 0-10 0v6.535h-6.535a5 5 0 0 0 0 10zm232.914 0h6.535v6.535a5 5 0 1 0 10 0v-6.535h6.534a5 5 0 1 0 0-10h-6.534v-6.535a5 5 0 1 0-10 0v6.535h-6.535a5 5 0 1 0 0 10zM250 341.445c-8.972 0-17.313 4.04-22.885 11.084a5 5 0 0 0 7.843 6.204c3.664-4.632 9.147-7.288 15.042-7.288 5.896 0 11.378 2.656 15.042 7.288a5 5 0 0 0 7.843-6.204c-5.572-7.044-13.912-11.084-22.885-11.084zM52.151 490h-3.813a5 5 0 0 0 0 10h3.813a5 5 0 0 0 0-10zm383.539 5a5 5 0 0 1-5 5h-90.144a5 5 0 1 1 0-10h16.213a37.937 37.937 0 0 1-10.378-16.15l-35.906-109.636A101.667 101.667 0 0 1 250 384.185a101.665 101.665 0 0 1-60.475-19.971L153.618 473.85A37.935 37.935 0 0 1 143.241 490h16.213a5 5 0 0 1 0 10H69.311a5 5 0 0 1 0-10h22.423c-7.149-6.583-11.74-15.905-12.161-26.428a4.947 4.947 0 0 1-.041-.636v-87.645c0-.071.018-.137.021-.207l-.021-27.624c0-29.356 23.879-53.235 53.231-53.235h1.64v-3.416a66.206 66.206 0 0 1 5.328-26.097l15.185-35.637a18.848 18.848 0 0 1 16.836-11.463c19.406-23.394 47.783-36.764 78.248-36.764 30.464 0 58.842 13.371 78.248 36.764a18.85 18.85 0 0 1 16.836 11.463l15.185 35.637a66.213 66.213 0 0 1 5.328 26.097v3.416h1.64c29.353 0 53.232 23.879 53.232 53.231v115.479c0 .218-.014.434-.042.646-.424 10.519-5.013 19.837-12.161 26.418h22.424c2.762.001 5 2.24 5 5.001zm-70.093-190.774v16.159c0 4.887.986 9.639 2.932 14.124l15.523 35.783h26.417v-22.834c0-23.838-19.394-43.231-43.232-43.231h-1.64zM89.533 347.458l.017 22.834h26.399l15.523-35.783a35.289 35.289 0 0 0 2.932-14.124v-16.159h-1.64c-23.838 0-43.231 19.394-43.231 43.232zm92.72 6.831.001-.006 4.358-13.306a85.485 85.485 0 0 0 4.252-26.65V290.81a66.2 66.2 0 0 1 5.329-26.097l8.971-21.055c1.546-3.628 1.186-7.597-.989-10.888s-5.684-5.178-9.628-5.178h-22.254a8.875 8.875 0 0 0-8.176 5.403l-15.184 35.637a56.276 56.276 0 0 0-4.528 22.177v29.575a45.215 45.215 0 0 1-3.758 18.103l-16.829 38.793-.001.001-15.595 35.949a5.003 5.003 0 0 1-4.589 3.012 5 5 0 0 1-4.584-6.992l12.564-28.96h-22.08v82.148c.01.108.017.217.019.327.402 15.273 12.694 27.235 27.985 27.235a27.91 27.91 0 0 0 26.579-19.263l38.137-116.448zm124.931-.127-3.299-10.072a95.489 95.489 0 0 1-4.75-29.763V290.81a56.271 56.271 0 0 0-4.527-22.177l-8.971-21.055a21.486 21.486 0 0 1 1.846-20.321 21.487 21.487 0 0 1 17.972-9.665h9.271c-17.115-17.113-40.169-26.744-64.724-26.744s-47.609 9.631-64.724 26.744h9.271c7.253 0 13.972 3.613 17.971 9.664s4.689 13.648 1.847 20.321l-8.971 21.055a56.255 56.255 0 0 0-4.528 22.177v23.517a95.464 95.464 0 0 1-4.75 29.763l-3.299 10.073a91.67 91.67 0 0 0 57.184 20.023 91.67 91.67 0 0 0 57.181-20.023zM382.465 490c15.29 0 27.582-11.962 27.984-27.233a5.22 5.22 0 0 1 .02-.333v-82.142h-22.074l12.564 28.96a5 5 0 1 1-9.174 3.98l-15.574-35.9c-.008-.017-.019-.032-.026-.05l-16.829-38.793a45.232 45.232 0 0 1-3.758-18.103V290.81a56.271 56.271 0 0 0-4.527-22.177l-15.185-35.637a8.874 8.874 0 0 0-8.176-5.403h-22.255c-3.944 0-7.454 1.887-9.629 5.178s-2.535 7.259-.989 10.888l8.971 21.055a66.213 66.213 0 0 1 5.328 26.097v23.517a85.457 85.457 0 0 0 4.254 26.65l4.357 13.306 38.14 116.455A27.907 27.907 0 0 0 382.465 490zm69.198 0h-3.813a5 5 0 1 0 0 10h3.813a5 5 0 1 0 0-10zM86.244 207.928c0-16.353 16.748-31.293 47.236-42.229-9.59-24.237-9.618-43.098.727-53.444 12.695-12.695 37.744-10.049 70.873 7.338 2.275-7.267 4.786-14.002 7.53-20.095 10.374-23.033 23.304-35.207 37.39-35.207s27.016 12.174 37.391 35.206c2.744 6.093 5.255 12.829 7.53 20.096 33.13-17.387 58.18-20.032 70.872-7.338 10.346 10.346 10.318 29.208.728 53.444 30.489 10.936 47.236 25.876 47.236 42.229 0 16.559-17.239 31.718-48.542 42.687a5.005 5.005 0 0 1-1.653.283 5 5 0 0 1-1.654-9.72c26.596-9.319 41.849-21.438 41.849-33.249 0-11.752-14.991-23.738-41.209-33.029-5.345 11.424-12.584 23.847-21.661 36.995a4.995 4.995 0 0 1-6.956 1.274 5 5 0 0 1-1.274-6.955c8.367-12.121 15.149-23.771 20.219-34.464-14.406-4.313-30.785-7.632-48.418-9.859a398.144 398.144 0 0 1 2.645 20.785 5 5 0 1 1-9.95 1.001 376.595 376.595 0 0 0-3.013-22.952c-14.147-1.41-28.972-2.143-44.139-2.143-15.167 0-29.993.733-44.139 2.143a375.81 375.81 0 0 0-3.013 22.952 5 5 0 1 1-9.95-1.002c.72-7.15 1.61-14.079 2.645-20.785-17.634 2.228-34.012 5.547-48.418 9.859 5.07 10.693 11.851 22.343 20.218 34.464a5 5 0 0 1-4.11 7.841 4.992 4.992 0 0 1-4.119-2.16c-9.076-13.148-16.315-25.57-21.661-36.995-26.218 9.291-41.209 21.277-41.209 33.029 0 11.812 15.253 23.93 41.849 33.249 2.606.913 3.979 3.766 3.065 6.372s-3.766 3.98-6.372 3.065c-31.304-10.968-48.543-26.128-48.543-42.686zm211.514-78.522c1.864 6.997 3.523 14.412 4.963 22.202 19.803 2.35 38.18 6.034 54.196 10.917 8.081-20.178 9.092-35.915 1.807-43.2-9.285-9.284-31.934-5.489-60.966 10.081zm-76.031-25.802c-5.701 12.656-10.48 28.742-14.03 46.901 13.627-1.267 27.822-1.923 42.303-1.923s28.676.656 42.303 1.923c-3.55-18.16-8.329-34.245-14.03-46.901-8.514-18.903-18.555-29.313-28.273-29.313-9.717 0-19.758 10.41-28.273 29.313zm-78.643 58.921c16.015-4.884 34.392-8.567 54.196-10.917 1.44-7.791 3.1-15.205 4.963-22.202-29.031-15.571-51.68-19.367-60.966-10.081-7.284 7.285-6.273 23.023 1.807 43.2z" style="fill:#1c1d21"/></svg>